<svg xmlns="http://www.w3.org/2000/svg" width="700" height="260">
<style>text{font-family:Arial,sans-serif;fill:#222}.grid{stroke:#ddd;stroke-width:1}.axis{stroke:#444;stroke-width:1.5}.line{fill:none;stroke:#1f77b4;stroke-width:2.5}.dot{fill:#1f77b4}</style>
<text x="350" y="22" text-anchor="middle" font-size="16" font-weight="bold">Similarity Val MRR</text>
<line class="grid" x1="60" y1="220.00" x2="680" y2="220.00" />
<text x="52" y="224.00" text-anchor="end" font-size="11">0.326</text>
<line class="grid" x1="60" y1="173.75" x2="680" y2="173.75" />
<text x="52" y="177.75" text-anchor="end" font-size="11">0.337</text>
<line class="grid" x1="60" y1="127.50" x2="680" y2="127.50" />
<text x="52" y="131.50" text-anchor="end" font-size="11">0.348</text>
<line class="grid" x1="60" y1="81.25" x2="680" y2="81.25" />
<text x="52" y="85.25" text-anchor="end" font-size="11">0.358</text>
<line class="grid" x1="60" y1="35.00" x2="680" y2="35.00" />
<text x="52" y="39.00" text-anchor="end" font-size="11">0.369</text>
<line class="axis" x1="60" y1="35" x2="60" y2="220" />
<line class="axis" x1="60" y1="220" x2="680" y2="220" />
<line class="grid" x1="60.00" y1="35" x2="60.00" y2="220" />
<text x="60.00" y="238" text-anchor="middle" font-size="11">1</text>
<line class="grid" x1="215.00" y1="35" x2="215.00" y2="220" />
<text x="215.00" y="238" text-anchor="middle" font-size="11">2</text>
<line class="grid" x1="370.00" y1="35" x2="370.00" y2="220" />
<text x="370.00" y="238" text-anchor="middle" font-size="11">3</text>
<line class="grid" x1="525.00" y1="35" x2="525.00" y2="220" />
<text x="525.00" y="238" text-anchor="middle" font-size="11">4</text>
<line class="grid" x1="680.00" y1="35" x2="680.00" y2="220" />
<text x="680.00" y="238" text-anchor="middle" font-size="11">5</text>
<polyline class="line" points="60.00,37.94 215.00,35.00 370.00,111.10 525.00,103.53 680.00,220.00" />
<circle class="dot" cx="60.00" cy="37.94" r="3.5" />
<circle class="dot" cx="215.00" cy="35.00" r="3.5" />
<circle class="dot" cx="370.00" cy="111.10" r="3.5" />
<circle class="dot" cx="525.00" cy="103.53" r="3.5" />
<circle class="dot" cx="680.00" cy="220.00" r="3.5" />
</svg>